<svg width="63" height="87" viewBox="0 0 63 87" fill="none" xmlns="http://www.w3.org/2000/svg">
<path d="M49.4044 35.2111C49.4044 35.2111 64.6256 27.5224 54.8221 3.58302C54.7313 3.36232 54.5687 3.17884 54.3593 3.06059C54.1498 2.94233 53.905 2.89579 53.6621 2.92808C53.4193 2.96037 53.1918 3.06972 53.0143 3.23942C52.8369 3.40912 52.7192 3.62987 52.6794 3.86795C51.5457 10.5594 48.3295 23.5639 40.4182 23.7252L40.3664 35.4068L49.4044 35.2111Z" fill="#D9D9D9"/>
<path d="M14.7027 35.9244C14.7027 35.9244 -0.437924 28.8598 9.63224 4.51264C9.72715 4.28929 9.89284 4.10064 10.1041 3.97541C10.3153 3.85018 10.5606 3.79521 10.8025 3.81887C11.0444 3.84253 11.2698 3.94353 11.4443 4.10649C11.6189 4.26945 11.7331 4.48546 11.7695 4.72166C12.8269 11.3691 15.903 24.2412 23.8143 24.0799L23.7496 35.7523L14.7027 35.9244Z" fill="#D9D9D9"/>
<path d="M47.0662 20.0651C46.6767 17.7724 46.1437 15.5091 45.4703 13.2879C45.3088 12.7644 44.9789 12.3103 44.5294 11.9928C44.0799 11.6753 43.5347 11.5113 42.9743 11.525L21.4067 11.9651C20.8462 11.9751 20.299 12.1619 19.8459 12.498C19.3927 12.8342 19.0575 13.3019 18.8896 13.8322C18.1924 16.0814 17.635 18.3669 17.2204 20.6759L47.0662 20.0651Z" fill="#C10E1F"/>
<path d="M18.565 14.9185C18.0193 16.8166 17.5707 18.7381 17.221 20.6757L47.0668 20.0649C46.7377 18.1409 46.31 16.2369 45.7854 14.3602L18.565 14.9185Z" fill="#9B0218"/>
<path d="M18.647 16.1311C18.0873 16.1425 17.5413 16.3295 17.0886 16.6648C16.636 17.0002 16.3003 17.4664 16.1307 17.9954C13.9668 24.775 12.6581 32.9406 12.6107 41.7189C12.4848 64.8596 21.0756 83.4411 31.8081 83.2224C42.5407 83.0038 51.3252 64.0763 51.4543 40.9241C51.5037 32.1494 50.297 24.0291 48.1951 17.3411C48.0311 16.819 47.7006 16.3665 47.2517 16.0494C46.8027 15.7323 46.2588 15.5672 45.6992 15.5782L18.647 16.1311Z" fill="#EFB922"/>
<path d="M22.3164 70.1923C18.8874 62.6924 16.8024 52.3336 16.8627 40.8466C16.9121 32.0719 18.2071 23.8999 20.3818 17.1259C20.5021 16.7322 20.7145 16.3696 21.0017 16.0676L18.6383 16.1098C18.0786 16.1212 17.5326 16.3082 17.0799 16.6436C16.6273 16.9789 16.2916 17.4451 16.122 17.9741C13.9581 24.7537 12.6494 32.9194 12.602 41.6976C12.5416 53.05 14.5777 63.3053 17.9367 70.7792C19.3823 70.475 20.8464 70.2788 22.3164 70.1923Z" fill="#EFB922"/>
<path d="M18.6471 16.1307C18.0874 16.1421 17.5414 16.3291 17.0887 16.6644C16.636 16.9998 16.3004 17.466 16.1308 17.995C14.8595 22.027 13.9447 26.1512 13.3966 30.3207L13.5601 31.0541L30.0537 35.6104L31.2651 15.8679L18.6471 16.1307Z" fill="#EFB922"/>
<path d="M46.7181 17.4131C48.6231 24.2677 49.716 32.5899 49.6717 41.5829C49.594 56.0771 46.5679 68.9623 42.0046 76.818C47.5971 69.3294 51.3685 56.0214 51.451 40.923C51.5004 32.1483 50.2936 24.028 48.1918 17.34C48.0278 16.8179 47.6973 16.3654 47.2483 16.0483C46.7994 15.7312 46.2555 15.5661 45.6959 15.5771L44.4545 15.6021C44.9882 15.6119 45.4993 15.7945 45.9085 16.1219C46.3177 16.4492 46.6022 16.903 46.7181 17.4131Z" fill="#FFD366"/>
<path d="M47.784 63.0883C47.9375 63.1253 48.1014 63.1003 48.2394 63.0189C48.3775 62.9375 48.4784 62.8063 48.52 62.6541C50.3315 56.2941 51.395 48.8551 51.4371 40.9194C51.4626 37.0329 51.2308 33.1555 50.7432 29.3119C50.7341 29.2271 50.7063 29.1456 50.6616 29.0733C50.617 29.001 50.5567 28.9395 50.4848 28.8931C50.413 28.8467 50.3313 28.8166 50.2455 28.8047C50.1596 28.7928 50.0717 28.7995 49.9878 28.8243C49.8232 28.8733 49.6535 28.918 49.4926 28.9648C49.3482 29.0007 49.221 29.0876 49.1354 29.2086C49.0499 29.3297 49.012 29.4764 49.0292 29.6206C49.4759 33.5824 49.6866 37.5725 49.6601 41.5706C49.6631 48.5502 48.8917 55.5292 47.3595 62.3838C47.3232 62.534 47.3475 62.6907 47.4271 62.8206C47.5068 62.9506 47.6357 63.0435 47.7863 63.0797L47.784 63.0883Z" fill="#BA880D"/>
<path d="M17.4883 69.7545C20.9928 78.1286 26.0965 83.3323 31.8 83.2201C37.5034 83.1079 42.6652 77.6893 46.2637 69.1641L17.4883 69.7545Z" fill="#D9D9D9"/>
<path d="M31.8001 83.22C33.3083 83.1791 34.7948 82.7893 36.1392 82.0822C36.0642 82.0855 35.9913 82.0924 35.9171 82.0929C30.4507 82.2071 25.5414 77.4324 22.0538 69.6616L17.4876 69.7573C20.9929 78.1285 26.0966 83.3322 31.8001 83.22Z" fill="#B2B2B2"/>
<path d="M34.0547 35.5239L30.0497 35.6061L30.2222 3.94019C30.2248 3.47058 30.4169 3.0163 30.7562 2.6773C31.0956 2.33831 31.5545 2.14238 32.0319 2.13259L32.4339 2.12435C32.9113 2.11456 33.3681 2.29171 33.7038 2.61686C34.0396 2.942 34.2268 3.38851 34.2242 3.85812L34.0517 35.524L34.0547 35.5239Z" fill="#D9D9D9"/>
<path d="M26.3275 61.2749C31.4623 63.4216 37.5032 61.0191 39.8202 55.9089C42.1373 50.7987 39.8531 44.9158 34.7183 42.7692C29.5835 40.6225 23.5426 43.025 21.2255 48.1352C18.9084 53.2454 21.1927 59.1283 26.3275 61.2749Z" fill="#BA880D"/>
<path d="M22.5567 49.6416C21.0828 55.0275 24.2957 60.4552 29.7328 61.7647C35.1699 63.0742 40.7724 59.7697 42.2463 54.3838C43.7202 48.9979 40.5074 43.5703 35.0702 42.2607C29.6331 40.9512 24.0306 44.2557 22.5567 49.6416Z" fill="#D9D9D9"/>
<path d="M25.5103 50.353C24.4786 54.1231 26.7276 57.9225 30.5336 58.8392C34.3396 59.7559 38.2613 57.4427 39.293 53.6726C40.3248 49.9025 38.0758 46.1031 34.2698 45.1864C30.4638 44.2698 26.542 46.5829 25.5103 50.353Z" fill="#8EC1B9"/>
<path d="M31.751 45.6498C33.5783 46.0907 35.1338 47.2322 36.0757 48.8235C37.0176 50.4148 37.2689 52.3256 36.7743 54.136C36.4723 55.2422 35.903 56.2665 35.1155 57.1203C34.3279 57.9741 33.3459 58.6318 32.2542 59.0365C33.8473 59.0284 35.4057 58.4959 36.6814 57.5239C37.957 56.5518 38.8763 55.196 39.293 53.6726C39.7877 51.8622 39.5364 49.9514 38.5945 48.3601C37.6525 46.7688 36.097 45.6273 34.2698 45.1864C32.8733 44.8489 31.3943 44.9418 30.0303 45.4525C30.6118 45.4486 31.1896 45.5149 31.751 45.6498Z" fill="#66A397"/>
</svg>
