<svg width="35" height="3227" viewBox="0 0 35 3227" fill="none" xmlns="http://www.w3.org/2000/svg">
<rect width="35" height="3227" fill="#A6A6A6"/>
<rect x="15" width="6" height="14" fill="white"/>
<rect x="15" y="51" width="6" height="14" fill="white"/>
<rect x="15" y="102" width="6" height="14" fill="white"/>
<rect x="15" y="153" width="6" height="14" fill="white"/>
<rect x="15" y="204" width="6" height="14" fill="white"/>
<rect x="15" y="255" width="6" height="14" fill="white"/>
<rect x="15" y="306" width="6" height="14" fill="white"/>
<rect x="15" y="357" width="6" height="14" fill="white"/>
<rect x="15" y="408" width="6" height="14" fill="white"/>
<rect x="15" y="459" width="6" height="14" fill="white"/>
<rect x="15" y="510" width="6" height="14" fill="white"/>
<rect x="15" y="561" width="6" height="14" fill="white"/>
<rect x="15" y="612" width="6" height="14" fill="white"/>
<rect x="15" y="663" width="6" height="14" fill="white"/>
<rect x="15" y="714" width="6" height="14" fill="white"/>
<rect x="15" y="765" width="6" height="14" fill="white"/>
<rect x="15" y="816" width="6" height="14" fill="white"/>
<rect x="15" y="867" width="6" height="14" fill="white"/>
<rect x="15" y="918" width="6" height="14" fill="white"/>
<rect x="15" y="969" width="6" height="14" fill="white"/>
<rect x="15" y="1020" width="6" height="14" fill="white"/>
<rect x="15" y="1071" width="6" height="14" fill="white"/>
<rect x="15" y="1122" width="6" height="14" fill="white"/>
<rect x="15" y="1173" width="6" height="14" fill="white"/>
<rect x="15" y="1224" width="6" height="14" fill="white"/>
<rect x="15" y="1275" width="6" height="14" fill="white"/>
<rect x="15" y="1326" width="6" height="14" fill="white"/>
<rect x="15" y="1377" width="6" height="14" fill="white"/>
<rect x="15" y="1428" width="6" height="14" fill="white"/>
<rect x="15" y="1479" width="6" height="14" fill="white"/>
<rect x="15" y="1530" width="6" height="14" fill="white"/>
<rect x="15" y="1581" width="6" height="14" fill="white"/>
<rect x="15" y="1632" width="6" height="14" fill="white"/>
<rect x="15" y="1683" width="6" height="14" fill="white"/>
<rect x="15" y="1734" width="6" height="14" fill="white"/>
<rect x="15" y="1785" width="6" height="14" fill="white"/>
<rect x="15" y="1836" width="6" height="14" fill="white"/>
<rect x="15" y="1887" width="6" height="14" fill="white"/>
<rect x="15" y="1938" width="6" height="14" fill="white"/>
<rect x="15" y="1989" width="6" height="14" fill="white"/>
<rect x="15" y="2040" width="6" height="14" fill="white"/>
<rect x="15" y="2091" width="6" height="14" fill="white"/>
<rect x="15" y="2142" width="6" height="14" fill="white"/>
<rect x="15" y="2193" width="6" height="14" fill="white"/>
<rect x="15" y="2244" width="6" height="14" fill="white"/>
<rect x="15" y="2295" width="6" height="14" fill="white"/>
<rect x="15" y="2346" width="6" height="14" fill="white"/>
<rect x="15" y="2397" width="6" height="14" fill="white"/>
<rect x="15" y="2448" width="6" height="14" fill="white"/>
<rect x="15" y="2499" width="6" height="14" fill="white"/>
<rect x="15" y="2550" width="6" height="14" fill="white"/>
<rect x="15" y="2601" width="6" height="14" fill="white"/>
<rect x="15" y="2652" width="6" height="14" fill="white"/>
<rect x="15" y="2703" width="6" height="14" fill="white"/>
<rect x="15" y="2754" width="6" height="14" fill="white"/>
<rect x="15" y="2805" width="6" height="14" fill="white"/>
<rect x="15" y="2856" width="6" height="14" fill="white"/>
<rect x="15" y="2907" width="6" height="14" fill="white"/>
<rect x="15" y="2958" width="6" height="14" fill="white"/>
<rect x="15" y="3009" width="6" height="14" fill="white"/>
<rect x="15" y="3060" width="6" height="14" fill="white"/>
<rect x="15" y="3111" width="6" height="14" fill="white"/>
<rect x="15" y="3162" width="6" height="14" fill="white"/>
<rect x="15" y="3213" width="6" height="14" fill="white"/>
<rect x="15" y="17" width="6" height="14" fill="white"/>
<rect x="15" y="68" width="6" height="14" fill="white"/>
<rect x="15" y="119" width="6" height="14" fill="white"/>
<rect x="15" y="170" width="6" height="14" fill="white"/>
<rect x="15" y="221" width="6" height="14" fill="white"/>
<rect x="15" y="272" width="6" height="14" fill="white"/>
<rect x="15" y="323" width="6" height="14" fill="white"/>
<rect x="15" y="374" width="6" height="14" fill="white"/>
<rect x="15" y="425" width="6" height="14" fill="white"/>
<rect x="15" y="476" width="6" height="14" fill="white"/>
<rect x="15" y="527" width="6" height="14" fill="white"/>
<rect x="15" y="578" width="6" height="14" fill="white"/>
<rect x="15" y="629" width="6" height="14" fill="white"/>
<rect x="15" y="680" width="6" height="14" fill="white"/>
<rect x="15" y="731" width="6" height="14" fill="white"/>
<rect x="15" y="782" width="6" height="14" fill="white"/>
<rect x="15" y="833" width="6" height="14" fill="white"/>
<rect x="15" y="884" width="6" height="14" fill="white"/>
<rect x="15" y="935" width="6" height="14" fill="white"/>
<rect x="15" y="986" width="6" height="14" fill="white"/>
<rect x="15" y="1037" width="6" height="14" fill="white"/>
<rect x="15" y="1088" width="6" height="14" fill="white"/>
<rect x="15" y="1139" width="6" height="14" fill="white"/>
<rect x="15" y="1190" width="6" height="14" fill="white"/>
<rect x="15" y="1241" width="6" height="14" fill="white"/>
<rect x="15" y="1292" width="6" height="14" fill="white"/>
<rect x="15" y="1343" width="6" height="14" fill="white"/>
<rect x="15" y="1394" width="6" height="14" fill="white"/>
<rect x="15" y="1445" width="6" height="14" fill="white"/>
<rect x="15" y="1496" width="6" height="14" fill="white"/>
<rect x="15" y="1547" width="6" height="14" fill="white"/>
<rect x="15" y="1598" width="6" height="14" fill="white"/>
<rect x="15" y="1649" width="6" height="14" fill="white"/>
<rect x="15" y="1700" width="6" height="14" fill="white"/>
<rect x="15" y="1751" width="6" height="14" fill="white"/>
<rect x="15" y="1802" width="6" height="14" fill="white"/>
<rect x="15" y="1853" width="6" height="14" fill="white"/>
<rect x="15" y="1904" width="6" height="14" fill="white"/>
<rect x="15" y="1955" width="6" height="14" fill="white"/>
<rect x="15" y="2006" width="6" height="14" fill="white"/>
<rect x="15" y="2057" width="6" height="14" fill="white"/>
<rect x="15" y="2108" width="6" height="14" fill="white"/>
<rect x="15" y="2159" width="6" height="14" fill="white"/>
<rect x="15" y="2210" width="6" height="14" fill="white"/>
<rect x="15" y="2261" width="6" height="14" fill="white"/>
<rect x="15" y="2312" width="6" height="14" fill="white"/>
<rect x="15" y="2363" width="6" height="14" fill="white"/>
<rect x="15" y="2414" width="6" height="14" fill="white"/>
<rect x="15" y="2465" width="6" height="14" fill="white"/>
<rect x="15" y="2516" width="6" height="14" fill="white"/>
<rect x="15" y="2567" width="6" height="14" fill="white"/>
<rect x="15" y="2618" width="6" height="14" fill="white"/>
<rect x="15" y="2669" width="6" height="14" fill="white"/>
<rect x="15" y="2720" width="6" height="14" fill="white"/>
<rect x="15" y="2771" width="6" height="14" fill="white"/>
<rect x="15" y="2822" width="6" height="14" fill="white"/>
<rect x="15" y="2873" width="6" height="14" fill="white"/>
<rect x="15" y="2924" width="6" height="14" fill="white"/>
<rect x="15" y="2975" width="6" height="14" fill="white"/>
<rect x="15" y="3026" width="6" height="14" fill="white"/>
<rect x="15" y="3077" width="6" height="14" fill="white"/>
<rect x="15" y="3128" width="6" height="14" fill="white"/>
<rect x="15" y="3179" width="6" height="14" fill="white"/>
<rect x="15" y="34" width="6" height="14" fill="white"/>
<rect x="15" y="85" width="6" height="14" fill="white"/>
<rect x="15" y="136" width="6" height="14" fill="white"/>
<rect x="15" y="187" width="6" height="14" fill="white"/>
<rect x="15" y="238" width="6" height="14" fill="white"/>
<rect x="15" y="289" width="6" height="14" fill="white"/>
<rect x="15" y="340" width="6" height="14" fill="white"/>
<rect x="15" y="391" width="6" height="14" fill="white"/>
<rect x="15" y="442" width="6" height="14" fill="white"/>
<rect x="15" y="493" width="6" height="14" fill="white"/>
<rect x="15" y="544" width="6" height="14" fill="white"/>
<rect x="15" y="595" width="6" height="14" fill="white"/>
<rect x="15" y="646" width="6" height="14" fill="white"/>
<rect x="15" y="697" width="6" height="14" fill="white"/>
<rect x="15" y="748" width="6" height="14" fill="white"/>
<rect x="15" y="799" width="6" height="14" fill="white"/>
<rect x="15" y="850" width="6" height="14" fill="white"/>
<rect x="15" y="901" width="6" height="14" fill="white"/>
<rect x="15" y="952" width="6" height="14" fill="white"/>
<rect x="15" y="1003" width="6" height="14" fill="white"/>
<rect x="15" y="1054" width="6" height="14" fill="white"/>
<rect x="15" y="1105" width="6" height="14" fill="white"/>
<rect x="15" y="1156" width="6" height="14" fill="white"/>
<rect x="15" y="1207" width="6" height="14" fill="white"/>
<rect x="15" y="1258" width="6" height="14" fill="white"/>
<rect x="15" y="1309" width="6" height="14" fill="white"/>
<rect x="15" y="1360" width="6" height="14" fill="white"/>
<rect x="15" y="1411" width="6" height="14" fill="white"/>
<rect x="15" y="1462" width="6" height="14" fill="white"/>
<rect x="15" y="1513" width="6" height="14" fill="white"/>
<rect x="15" y="1564" width="6" height="14" fill="white"/>
<rect x="15" y="1615" width="6" height="14" fill="white"/>
<rect x="15" y="1666" width="6" height="14" fill="white"/>
<rect x="15" y="1717" width="6" height="14" fill="white"/>
<rect x="15" y="1768" width="6" height="14" fill="white"/>
<rect x="15" y="1819" width="6" height="14" fill="white"/>
<rect x="15" y="1870" width="6" height="14" fill="white"/>
<rect x="15" y="1921" width="6" height="14" fill="white"/>
<rect x="15" y="1972" width="6" height="14" fill="white"/>
<rect x="15" y="2023" width="6" height="14" fill="white"/>
<rect x="15" y="2074" width="6" height="14" fill="white"/>
<rect x="15" y="2125" width="6" height="14" fill="white"/>
<rect x="15" y="2176" width="6" height="14" fill="white"/>
<rect x="15" y="2227" width="6" height="14" fill="white"/>
<rect x="15" y="2278" width="6" height="14" fill="white"/>
<rect x="15" y="2329" width="6" height="14" fill="white"/>
<rect x="15" y="2380" width="6" height="14" fill="white"/>
<rect x="15" y="2431" width="6" height="14" fill="white"/>
<rect x="15" y="2482" width="6" height="14" fill="white"/>
<rect x="15" y="2533" width="6" height="14" fill="white"/>
<rect x="15" y="2584" width="6" height="14" fill="white"/>
<rect x="15" y="2635" width="6" height="14" fill="white"/>
<rect x="15" y="2686" width="6" height="14" fill="white"/>
<rect x="15" y="2737" width="6" height="14" fill="white"/>
<rect x="15" y="2788" width="6" height="14" fill="white"/>
<rect x="15" y="2839" width="6" height="14" fill="white"/>
<rect x="15" y="2890" width="6" height="14" fill="white"/>
<rect x="15" y="2941" width="6" height="14" fill="white"/>
<rect x="15" y="2992" width="6" height="14" fill="white"/>
<rect x="15" y="3043" width="6" height="14" fill="white"/>
<rect x="15" y="3094" width="6" height="14" fill="white"/>
<rect x="15" y="3145" width="6" height="14" fill="white"/>
<rect x="15" y="3196" width="6" height="14" fill="white"/>
</svg>
